<?xml version="1.0" encoding="UTF-8"?>
<svg id="Capa_2" data-name="Capa 2" xmlns="http://www.w3.org/2000/svg" viewBox="0 0 212.75 383.59">
  <defs>
    <style>
      .cls-1 {
        fill: #8b2638;
        stroke-width: 0px;
      }
    </style>
  </defs>
  <g id="Capa_1-2" data-name="Capa 1">
    <g>
      <g>
        <path class="cls-1" d="M3.23,167.2h26.67c15.24,0,27.14,12.38,27.14,26.43v13.1c0,6.19-.48,13.1-8.57,16.9,9.05,4.05,11.9,12.38,11.9,20.24v58.81c0,14.05-11.9,26.43-27.14,26.43H3.23v-161.91ZM29.89,217.44c6.43,0,10.48-5,10.48-10.48v-13.57c0-5.48-4.05-10.48-10.48-10.48h-10v34.52h10ZM33.23,313.4c6.43,0,10.48-5,10.48-10.48v-59.29c0-5.48-4.05-10.48-10.48-10.48h-13.33v80.24h13.33Z"/>
        <path class="cls-1" d="M79.89,167.2h53.57v15.71h-36.91v34.29h29.76v15.71h-29.76v80.48h40.48v15.71h-57.14v-161.91Z"/>
        <path class="cls-1" d="M145.13,313.16h14.29c6.9,0,11.19-5.24,11.19-11.43v-106.43c0-15,10.71-28.1,27.62-28.1h14.52v15.95h-14.29c-6.9,0-11.19,5.24-11.19,11.43v106.43c0,15-10.71,28.1-27.62,28.1h-14.52v-15.95Z"/>
      </g>
      <g>
        <path class="cls-1" d="M0,27.75C0,12.93,10.58,0,27.28,0h1.88c16.7,0,27.28,12.93,27.28,27.75v133.35h-16.46v-32.69h-23.52v32.69H0V27.75ZM39.98,112.89V26.81c0-6.12-4.23-11.29-11.05-11.29h-1.41c-6.82,0-11.05,5.17-11.05,11.29v86.08h23.52Z"/>
        <path class="cls-1" d="M77.61,1.18h29.16c16.7,0,27.28,12.93,27.28,27.75v104.19c0,15.29-10.58,27.99-27.28,27.99h-29.16V1.18ZM106.54,145.58c6.82,0,11.05-5.41,11.05-11.52V27.99c0-6.11-4.23-11.29-11.05-11.29h-12.46v128.88h12.46Z"/>
        <path class="cls-1" d="M153.81,27.75c0-14.82,10.58-27.75,27.28-27.75h1.88c16.7,0,27.28,12.93,27.28,27.75v106.54c0,15.29-10.58,27.99-27.28,27.99h-1.88c-16.7,0-27.28-12.7-27.28-27.99V27.75ZM181.32,146.75h1.41c6.82,0,11.05-5.41,11.05-11.52V26.81c0-6.12-4.23-11.29-11.05-11.29h-1.41c-6.82,0-11.05,5.17-11.05,11.29v108.42c0,6.11,4.23,11.52,11.05,11.52Z"/>
      </g>
      <g>
        <path class="cls-1" d="M14.62,382.13c.06.13.14.23.24.31.09.08.2.15.33.21.12.09.28.16.47.19l-.09.28h-3.62l-.09-.28c.16-.03.3-.08.42-.14.09-.06.19-.13.28-.21.09-.08.12-.2.09-.35l-5.87-11.46c-.13.03-.25.05-.38.05h-1.93v11.46c0,.25.12.44.38.56.12.06.25.09.38.09l-.05.28H1.85l-.09-.28c.12,0,.25-.03.38-.09.09-.06.19-.14.28-.23s.14-.22.14-.38v-30.9c0-.16-.05-.27-.14-.35-.09-.08-.19-.15-.28-.21-.13-.06-.25-.09-.38-.09l.09-.33h4.13c1.47,0,2.71.41,3.71,1.22,1,.81,1.78,1.85,2.35,3.1.56,1.25.92,2.65,1.06,4.2.14,1.55.07,3.05-.21,4.51-.28,1.46-.77,2.79-1.46,4.01-.69,1.22-1.58,2.13-2.68,2.72l5.87,12.11ZM5.98,370.06c1.13,0,2.06-.47,2.79-1.41.74-.94,1.29-2.12,1.67-3.55.38-1.42.56-2.97.56-4.63s-.19-3.2-.56-4.63c-.38-1.42-.93-2.61-1.67-3.55-.74-.94-1.67-1.41-2.79-1.41h-1.5v19.16h1.5Z"/>
        <path class="cls-1" d="M27.44,350.25v1.36l-.33.09c0-.12-.03-.25-.09-.38-.06-.09-.13-.19-.21-.28-.08-.09-.2-.14-.35-.14h-6.25v12.49h4.88v.7h-4.88v18.36h6.25c.25,0,.44-.12.56-.38.06-.12.09-.27.09-.42l.33.09v1.36h-9.86l-.09-.28c.12,0,.25-.03.38-.09.09-.06.19-.14.28-.23.09-.09.14-.22.14-.38v-18.03h-1.13v-.7h1.13v-12.16c0-.16-.05-.27-.14-.35-.09-.08-.19-.15-.28-.21-.13-.06-.25-.09-.38-.09l.09-.33h9.86Z"/>
        <path class="cls-1" d="M35.65,349.78c1.78,0,3.1.52,3.94,1.55.85,1.03,1.42,2.66,1.74,4.88l-2.11,1.69-.28-.42c.31-.5.52-1.15.63-1.95.11-.8.06-1.57-.14-2.3-.2-.74-.59-1.37-1.15-1.9-.56-.53-1.35-.8-2.35-.8-.63,0-1.21.15-1.76.45-.55.3-1.01.7-1.38,1.22-.38.52-.63,1.12-.77,1.81-.14.69-.13,1.42.02,2.21.16.72.49,1.52,1.01,2.39.52.88,1.13,1.81,1.85,2.79.72.99,1.48,2,2.28,3.05.8,1.05,1.55,2.12,2.25,3.22.7,1.1,1.3,2.19,1.78,3.29.48,1.1.77,2.16.87,3.19.09,1.13.05,2.25-.12,3.38-.17,1.13-.52,2.14-1.03,3.03s-1.21,1.62-2.09,2.18c-.88.56-1.94.85-3.19.85-.91,0-1.71-.1-2.42-.31-.7-.2-1.33-.55-1.88-1.03-.55-.49-1.01-1.14-1.38-1.97-.38-.83-.66-1.87-.85-3.12l2.11-1.69.28.42c-.31.53-.48,1.19-.49,1.97-.02.78.14,1.54.47,2.28.33.74.83,1.37,1.5,1.9.67.53,1.56.8,2.65.8,1.47,0,2.57-.63,3.29-1.9.72-1.27,1.13-2.9,1.22-4.91.06-1.1-.13-2.2-.59-3.31-.45-1.11-1.03-2.22-1.74-3.33-.7-1.11-1.49-2.22-2.35-3.33-.86-1.11-1.67-2.21-2.44-3.31-.77-1.1-1.43-2.18-2-3.24-.56-1.06-.91-2.13-1.03-3.19-.09-.72-.05-1.46.14-2.23.19-.77.52-1.47.99-2.11.47-.64,1.08-1.17,1.83-1.57.75-.41,1.64-.61,2.68-.61Z"/>
        <path class="cls-1" d="M58.47,350.25v1.36l-.28.09c0-.12-.03-.25-.09-.38-.06-.09-.14-.19-.24-.28-.09-.09-.22-.14-.38-.14h-5.63v31.23c0,.28.12.49.38.61.12.06.27.09.42.09l-.09.28h-3.33l-.09-.28c.12,0,.25-.03.38-.09.09-.06.19-.14.28-.23.09-.09.14-.22.14-.38v-31.23h-5.63c-.16,0-.28.05-.38.14s-.17.19-.23.28c-.06.13-.09.25-.09.38l-.28-.09v-1.36h15.17Z"/>
        <path class="cls-1" d="M73.26,382.13c.03.22.17.39.42.52.12.06.23.11.33.14l-.05.33h-3.19l-.09-.33c.12-.03.25-.08.38-.14.22-.12.31-.3.28-.52l-1.88-7.94h-8.97l-1.64,7.94c-.06.16-.05.27.02.35.08.08.15.15.21.21.09.06.2.09.33.09l-.09.33h-1.83l-.09-.33c.09,0,.2-.03.33-.09.25-.12.41-.31.47-.56l6.67-31.88h.8l7.61,31.88ZM69.32,373.54l-4.6-19.53-4.09,19.53h8.69Z"/>
        <path class="cls-1" d="M88.06,350.67c-.25.13-.38.31-.38.56v26.44c0,1.78-.52,3.22-1.57,4.3-1.05,1.08-2.42,1.62-4.11,1.62-.63,0-1.28-.11-1.95-.33-.67-.22-1.28-.56-1.83-1.03-.55-.47-1-1.08-1.36-1.83-.36-.75-.54-1.66-.54-2.72v-26.44c0-.16-.05-.27-.14-.35-.09-.08-.19-.15-.28-.21-.13-.06-.25-.09-.38-.09l.09-.33h3.33l.05.33c-.13,0-.25.03-.38.09-.25.13-.38.31-.38.56v26.44c0,.38.02.85.05,1.43.03.58.16,1.14.4,1.69.24.55.61,1.03,1.13,1.43.52.41,1.24.61,2.18.61s1.77-.18,2.39-.54c.63-.36,1.11-.81,1.46-1.34.34-.53.58-1.1.7-1.69.12-.59.19-1.13.19-1.6v-26.44c0-.25-.13-.44-.38-.56-.13-.06-.25-.09-.38-.09l.05-.33h2.35l.09.33c-.16,0-.3.03-.42.09Z"/>
        <path class="cls-1" d="M96.6,370.44c.85.28,1.6.79,2.25,1.53.66.74,1.3,1.57,1.93,2.51.63.94,1.29,1.92,2,2.93.7,1.02,1.53,1.95,2.49,2.79.95.85,2.07,1.54,3.36,2.09,1.28.55,2.85.82,4.7.82v.47c-2.54,0-4.65-.32-6.34-.96-1.69-.64-3.1-1.43-4.23-2.37s-2.04-1.97-2.72-3.1c-.69-1.13-1.29-2.16-1.81-3.1s-1.02-1.73-1.5-2.37c-.49-.64-1.09-.96-1.81-.96h-1.64v11.5c0,.22.12.39.38.52.12.06.25.09.38.09l-.05.28h-3.33l-.09-.28c.12,0,.25-.03.38-.09.09-.06.19-.14.28-.23s.14-.22.14-.38v-30.85c0-.16-.05-.28-.14-.38s-.19-.17-.28-.23c-.13-.06-.25-.09-.38-.09l.09-.28h4.13c1.53,0,2.82.44,3.85,1.31,1.03.88,1.82,2,2.37,3.36.55,1.36.86,2.86.94,4.48.08,1.63-.07,3.19-.45,4.67-.38,1.49-.97,2.81-1.78,3.97-.81,1.16-1.85,1.94-3.1,2.35ZM94.77,370.06c1.13,0,2.06-.47,2.79-1.41.74-.94,1.29-2.12,1.67-3.55.38-1.42.56-2.96.56-4.6s-.19-3.18-.56-4.6c-.38-1.42-.93-2.61-1.67-3.55-.74-.94-1.67-1.41-2.79-1.41h-1.5v19.11h1.5ZM118.81,377.25c.03.22.17.39.42.52.12.06.24.11.33.14l-.05.33h-3.19l-.09-.33c.12-.03.25-.08.38-.14.22-.12.31-.3.28-.52l-.7-3h-8.97l-.61,3c-.06.16-.05.27.02.35.08.08.15.15.21.21.09.06.2.09.33.09l-.09.33h-1.83l-.09-.33c.09,0,.2-.03.33-.09.25-.12.41-.31.47-.56l5.63-26.95h.8l6.43,26.95ZM115.99,373.58l-4.55-19.58-4.09,19.58h8.64Z"/>
        <path class="cls-1" d="M133.41,382.74c.12.06.27.09.42.09l-.09.28h-3l-8.12-31.08v30.1c0,.28.12.49.38.61.12.06.25.09.38.09l-.09.28h-2.3l-.09-.28c.12,0,.25-.03.38-.09.09-.06.19-.14.28-.23s.14-.22.14-.38v-30.9c0-.16-.05-.27-.14-.35-.09-.08-.19-.15-.28-.21-.13-.06-.25-.09-.38-.09l.09-.33h2.96l8.17,30.71v-29.72c0-.25-.13-.44-.38-.56-.13-.06-.25-.09-.38-.09l.05-.33h2.35l.09.33c-.16,0-.3.03-.42.09-.25.13-.38.31-.38.56v30.9c0,.28.12.49.38.61Z"/>
        <path class="cls-1" d="M151.07,350.25v1.36l-.28.09c0-.12-.03-.25-.09-.38-.06-.09-.14-.19-.24-.28-.09-.09-.22-.14-.38-.14h-5.63v31.23c0,.28.12.49.38.61.12.06.27.09.42.09l-.09.28h-3.33l-.09-.28c.12,0,.25-.03.38-.09.09-.06.19-.14.28-.23.09-.09.14-.22.14-.38v-31.23h-5.63c-.16,0-.28.05-.38.14s-.17.19-.23.28c-.06.13-.09.25-.09.38l-.28-.09v-1.36h15.17Z"/>
        <path class="cls-1" d="M168.3,364.05c1.19.31,2.16,1,2.91,2.07.75,1.06,1.29,2.3,1.62,3.71s.45,2.9.35,4.46c-.09,1.57-.39,3-.89,4.3-.5,1.3-1.2,2.38-2.09,3.24-.89.86-1.96,1.29-3.22,1.29h-4.6l-.09-.28c.12,0,.25-.03.38-.09.09-.06.19-.14.28-.23s.14-.22.14-.38v-30.9c0-.16-.05-.27-.14-.35-.09-.08-.19-.15-.28-.21-.13-.06-.25-.09-.38-.09l.09-.33h3.99c1.06,0,1.96.28,2.68.85.72.56,1.28,1.29,1.69,2.18.41.89.66,1.88.75,2.96.09,1.08.03,2.13-.19,3.15-.22,1.02-.58,1.95-1.08,2.79-.5.85-1.14,1.47-1.93,1.88ZM165.01,350.9v12.96h1.03c.66,0,1.23-.31,1.71-.94.48-.63.85-1.42,1.1-2.37.25-.95.39-2,.42-3.12.03-1.13-.06-2.18-.28-3.15-.22-.97-.57-1.78-1.06-2.42-.49-.64-1.12-.96-1.9-.96h-1.03ZM166.99,382.46c.81,0,1.52-.44,2.11-1.31.59-.88,1.05-1.98,1.36-3.31.31-1.33.49-2.77.54-4.32.05-1.55-.07-2.99-.35-4.32-.28-1.33-.73-2.43-1.34-3.31-.61-.88-1.38-1.31-2.32-1.31h-1.97v17.56c0,.16.02.27.05.33h1.93Z"/>
        <path class="cls-1" d="M190.37,382.13c.03.22.17.39.42.52.12.06.23.11.33.14l-.05.33h-3.19l-.09-.33c.12-.03.25-.08.38-.14.22-.12.31-.3.28-.52l-1.88-7.94h-8.97l-1.64,7.94c-.06.16-.05.27.02.35.08.08.15.15.21.21.09.06.2.09.33.09l-.09.33h-1.83l-.09-.33c.09,0,.2-.03.33-.09.25-.12.41-.31.47-.56l6.67-31.88h.8l7.61,31.88ZM186.43,373.54l-4.6-19.53-4.09,19.53h8.69Z"/>
        <path class="cls-1" d="M205.49,382.13c.06.13.14.23.24.31.09.08.2.15.33.21.12.09.28.16.47.19l-.09.28h-3.62l-.09-.28c.16-.03.3-.08.42-.14.09-.06.19-.13.28-.21.09-.08.12-.2.09-.35l-5.87-11.46c-.13.03-.25.05-.38.05h-1.93v11.46c0,.25.12.44.38.56.12.06.25.09.38.09l-.05.28h-3.33l-.09-.28c.12,0,.25-.03.38-.09.09-.06.19-.14.28-.23s.14-.22.14-.38v-30.9c0-.16-.05-.27-.14-.35-.09-.08-.19-.15-.28-.21-.13-.06-.25-.09-.38-.09l.09-.33h4.13c1.47,0,2.71.41,3.71,1.22,1,.81,1.78,1.85,2.35,3.1.56,1.25.92,2.65,1.06,4.2.14,1.55.07,3.05-.21,4.51-.28,1.46-.77,2.79-1.46,4.01-.69,1.22-1.58,2.13-2.68,2.72l5.87,12.11ZM196.85,370.06c1.13,0,2.06-.47,2.79-1.41.74-.94,1.29-2.12,1.67-3.55.38-1.42.56-2.97.56-4.63s-.19-3.2-.56-4.63c-.38-1.42-.93-2.61-1.67-3.55-.74-.94-1.67-1.41-2.79-1.41h-1.5v19.16h1.5Z"/>
      </g>
    </g>
  </g>
</svg>