<?xml version="1.0" encoding="UTF-8"?>
<svg id="Capa_2" data-name="Capa 2" xmlns="http://www.w3.org/2000/svg" viewBox="0 0 89.35 106.05">
  <defs>
    <style>
      .cls-1 {
        fill: #bf9732;
        stroke-width: 0px;
      }
    </style>
  </defs>
  <g id="Capa_1-2" data-name="Capa 1">
    <g>
      <path class="cls-1" d="M43.61,28.08c.23-.33.69-.42,1.02-.18l22.94,15.92c.33.23.42.69.18,1.02l-39.53,56.95c-.23.33-.69.42-1.02.18l-22.94-15.92c-.33-.23-.42-.69-.18-1.02L43.61,28.08h0ZM40.36,25.82L.83,82.78c-1.47,2.12-.94,5.05,1.18,6.52l22.94,15.92c2.12,1.47,5.05.94,6.52-1.18l39.53-56.95c1.47-2.12.94-5.05-1.18-6.52l-22.94-15.92c-2.12-1.47-5.05-.94-6.52,1.18h0Z"/>
      <path class="cls-1" d="M21.53,85.53c-2.58-1.79-3.22-5.34-1.43-7.92,1.79-2.58,5.34-3.22,7.92-1.43s3.22,5.34,1.43,7.92c-1.79,2.58-5.34,3.22-7.92,1.43h0ZM30.27,72.94c-4.37-3.03-10.38-1.94-13.42,2.42s-1.94,10.38,2.42,13.42c4.37,3.03,10.38,1.94,13.42-2.42s1.94-10.38-2.42-13.42h0Z"/>
      <path class="cls-1" d="M40.12,40.73l1.82,1.26c.9.62,2.13.4,2.75-.5s.4-2.13-.5-2.75l-1.82-1.26c-.9-.62-2.13-.4-2.75.5-.62.9-.4,2.13.5,2.75h0Z"/>
      <path class="cls-1" d="M47.65,45.95l1.82,1.26c.9.62,2.13.4,2.75-.5s.4-2.13-.5-2.75l-1.82-1.26c-.9-.62-2.13-.4-2.75.5s-.4,2.13.5,2.75h0Z"/>
      <path class="cls-1" d="M55.18,51.18l1.82,1.26c.9.62,2.13.4,2.75-.5s.4-2.13-.5-2.75l-1.82-1.26c-.9-.62-2.13-.4-2.75.5s-.4,2.13.5,2.75h0Z"/>
      <path class="cls-1" d="M35.07,48l1.82,1.26c.9.62,2.13.4,2.75-.5s.4-2.13-.5-2.75l-1.82-1.26c-.9-.62-2.13-.4-2.75.5s-.4,2.13.5,2.75h0Z"/>
      <path class="cls-1" d="M42.6,53.22l1.82,1.26c.9.62,2.13.4,2.75-.5s.4-2.13-.5-2.75l-1.82-1.26c-.9-.62-2.13-.4-2.75.5s-.4,2.13.5,2.75h0Z"/>
      <path class="cls-1" d="M50.13,58.45l1.82,1.26c.9.62,2.13.4,2.75-.5s.4-2.13-.5-2.75l-1.82-1.26c-.9-.62-2.13-.4-2.75.5-.62.9-.4,2.13.5,2.75h0Z"/>
      <path class="cls-1" d="M30.03,55.27l1.82,1.26c.9.62,2.13.4,2.75-.5s.4-2.13-.5-2.75l-1.82-1.26c-.9-.62-2.13-.4-2.75.5-.62.9-.4,2.13.5,2.75h0Z"/>
      <path class="cls-1" d="M37.56,60.49l1.82,1.26c.9.62,2.13.4,2.75-.5s.4-2.13-.5-2.75l-1.82-1.26c-.9-.62-2.13-.4-2.75.5s-.4,2.13.5,2.75h0Z"/>
      <path class="cls-1" d="M45.09,65.72l1.82,1.26c.9.62,2.13.4,2.75-.5s.4-2.13-.5-2.75l-1.82-1.26c-.9-.62-2.13-.4-2.75.5s-.4,2.13.5,2.75h0Z"/>
      <path class="cls-1" d="M24.98,62.54l1.82,1.26c.9.62,2.13.4,2.75-.5s.4-2.13-.5-2.75l-1.82-1.26c-.9-.62-2.13-.4-2.75.5s-.4,2.13.5,2.75h0Z"/>
      <path class="cls-1" d="M32.51,67.76l1.82,1.26c.9.62,2.13.4,2.75-.5s.4-2.13-.5-2.75l-1.82-1.26c-.9-.62-2.13-.4-2.75.5s-.4,2.13.5,2.75h0Z"/>
      <path class="cls-1" d="M40.04,72.99l1.82,1.26c.9.62,2.13.4,2.75-.5s.4-2.13-.5-2.75l-1.82-1.26c-.9-.62-2.13-.4-2.75.5-.62.9-.4,2.13.5,2.75h0Z"/>
      <path class="cls-1" d="M63.23,23.8c-1.78-1.23-3.94-1.78-6.1-1.54-1.08.12-1.87,1.1-1.75,2.18.07.59.39,1.09.84,1.41.38.26.85.39,1.34.34,1.2-.13,2.41.17,3.41.86s1.67,1.66,1.98,2.79c.29,1.05,1.37,1.67,2.43,1.38,1.05-.29,1.67-1.37,1.38-2.43-.55-2.02-1.81-3.8-3.53-4.99h0Z"/>
      <path class="cls-1" d="M76.92,29.67c1.05-.29,1.67-1.37,1.38-2.43-1.38-5.05-4.51-9.47-8.82-12.46-4.44-3.08-9.84-4.45-15.21-3.86-1.08.12-1.87,1.1-1.75,2.18.07.59.39,1.09.84,1.41.38.26.85.39,1.34.34,4.42-.49,8.87.64,12.52,3.18,3.55,2.46,6.12,6.1,7.26,10.26.29,1.05,1.37,1.67,2.43,1.38h0Z"/>
      <path class="cls-1" d="M87.83,28.72c1.06-.25,1.72-1.32,1.47-2.38-1.97-8.29-6.85-15.49-13.76-20.28C68.42,1.12,59.71-.9,51.01.37c-1.08.16-1.83,1.16-1.67,2.24.08.56.39,1.04.83,1.34.4.28.9.41,1.41.33,7.7-1.13,15.41.66,21.7,5.03,6.1,4.24,10.42,10.61,12.16,17.95.25,1.06,1.32,1.72,2.38,1.47h0Z"/>
    </g>
  </g>
</svg>