<?xml version="1.0" encoding="UTF-8"?>
<svg id="Capa_2" data-name="Capa 2" xmlns="http://www.w3.org/2000/svg" viewBox="0 0 148.3 84.88">
  <defs>
    <style>
      .cls-1 {
        fill: #2d3e4e;
      }

      .cls-1, .cls-2, .cls-3 {
        stroke-width: 0px;
      }

      .cls-2 {
        fill: #b1894b;
      }

      .cls-3 {
        fill: #ac884d;
      }
    </style>
  </defs>
  <g id="Capa_1-2" data-name="Capa 1">
    <g>
      <g>
        <path class="cls-2" d="M89.88.18c-.5,2.68-1.22,5.31-1.88,7.96-.18.73-.38,1.45-.56,2.18-.06.17-.06.34-.03.51.06-.03.12-.06.17-.1.4-.74.96-1.38,1.21-2.21.24-.81.35-1.63.44-2.58.49.67.6,1.35.75,1.99.44,1.93.21,3.73-1.06,5.33-.93,1.18-1.97,2.27-2.83,3.51-.48.69-.85,1.44-1.31,2.27.44-.07.61-.34.79-.55.75-.89,1.6-1.64,2.59-2.26,1-.64,1.32-1.73,1.66-2.78.11-.35.19-.71.36-1.05.46,1.8.71,3.6-.09,5.35-.42.92-1.26,1.43-2.15,1.85-.93.45-1.91.8-2.74,1.44-.53.41-1.01.87-1.27,1.54,1.42-1.14,3.06-1.71,4.8-2.06.73-.15,1.08-.8,1.4-1.4.22-.41.39-.85.65-1.43.38,1.12.34,2.1.14,3.08-.34,1.65-1.29,2.78-2.91,3.32-1.18.4-2.36.78-3.53,1.22-.92.34-1.71.9-2.32,1.67-.26.32-.51.66-.57,1.21.94-.53,1.73-1.1,2.64-1.47.81-.33,1.64-.65,2.5-.7,1.61-.09,2.71-.95,3.63-2.15.31-.41.61-.82,1.03-1.4.27,1.29.41,2.43.38,3.58-.04,1.67-1.02,2.78-2.28,3.69-1.4,1.01-3.01,1.41-4.71,1.43-1.23.01-2.44.09-3.6.56-.97.39-1.72,1.02-2.14,2.03.36.09.61-.1.87-.24,1.61-.85,3.31-1.16,5.12-.97,1.3.13,2.58-.03,3.84-.35,1.22-.31,2.2-1.01,2.94-2.07,1.05,1.87.24,4.54-1.68,5.59-2.31,1.26-4.73,1.43-7.24.71-2-.58-3.76-.02-5.38,1.16.1.24.22.16.33.14,2.02-.42,3.96-.12,5.88.58,1.97.72,3.96.7,5.93-.07.91-.36,1.72-.86,2.32-1.67,1.26,2.28,0,5.54-2.45,6.44-1.71.63-3.37.43-5-.3-1.37-.61-2.69-1.34-4.11-1.85-1.5-.54-3-.82-4.5,0-.21.12-.49.19-.56.49.6,0,1.2,0,1.79,0,1.78-.01,3.3.5,4.47,1.95,1.98,2.46,4.59,3,7.56,2.28.89-.22,1.63-.7,2.28-1.34.11-.1.2-.31.39-.22.17.08.13.28.14.44.05.99-.02,1.97-.21,2.95-.19,1.01-.86,1.67-1.67,2.16-2.7,1.64-5.45,1.93-8.25.21-1.18-.73-2.29-1.56-3.34-2.47-1.32-1.14-2.71-2.13-4.58-2-.75.05-1.48.21-2.16.7.26.24.56.14.81.2,1.06.25,1.85.89,2.57,1.65,1.7,1.78,3.61,3.23,6.08,3.75,1.1.23,2.22.41,3.34.5.18.01.43-.02.49.19.06.21-.18.31-.32.42-1.07.8-2.32,1.15-3.61,1.29-1.36.15-2.72.08-4.05-.31-1.8-.52-3.07-1.67-3.92-3.31-.5-.98-1.18-1.8-2.16-2.36-.54-.31-.91-.25-1.33.24-2.77,3.25-5.85,6.17-9.29,8.71-.26.19-.49.46-.85.45h-.02c.36-.58.94-.91,1.43-1.35,4.8-4.33,8.73-9.38,12.17-14.82,4.27-6.74,7.53-13.96,10.31-21.42,1.94-5.2,3.63-10.47,5.19-15.79.39-1.35.73-2.71,1.09-4.07.13-.01.2.04.17.18Z"/>
        <path class="cls-2" d="M67.49,38.48c1.66,0,2.34,1.28,3.35,2.06.26.2.15.4,0,.61-.54.8-1.08,1.6-1.61,2.4-.18.27-.41.36-.72.33-1.22-.1-2.44-.19-3.65-.28-.57-.04-.43-.33-.24-.66,1.28-2.19,2.59-4.36,3.81-6.59,2.55-4.68,5.01-9.42,6.9-14.42.71-1.89,1.41-3.78,2.13-5.67.24-.64.54-1.25.94-1.81.51-.71.59-1.57.77-2.42.74.99.77,3.02.09,4.16-.53.87-1.27,1.57-1.87,2.38-.32.43-.61.88-.83,1.41.77-.41,1.4-1.01,2.08-1.52.72-.54.79-1.5,1.19-2.48.24,1.25.33,2.3.04,3.33-.26.92-1.05,1.34-1.86,1.71-.64.29-1.3.55-1.81,1.07-.18.18-.34.37-.48.62.96-.61,2-.97,3.09-1.24.78-.2.97-1.02,1.29-1.68.64,1.15.06,3.09-1.1,3.75-.76.43-1.62.61-2.44.9-1.01.36-1.92.84-2.39,1.95,1.55-1.2,3.62-1,5.37-2.05-.34.8-.74,1.51-.95,2.27-.4,1.47-1.25,2.11-2.79,1.96-.69-.07-1.41.11-2.06.39-.59.25-1.08.63-1.33,1.41.91-.45,1.73-.82,2.64-.92.54-.06,1.08-.04,1.62.01.41.04.56.19.35.59-.08.15-.14.3-.21.45-.27.52-.43,1.15-.83,1.54-.49.47-1.09-.1-1.66-.14-1.14-.07-2.12.28-3.17,1.08,1.27-.28,2.35-.31,3.42,0,.84.25.85.29.45,1.04q-.67,1.28-2.05.84c-1.02-.32-2.01-.42-3.08.42.55,0,.93,0,1.31,0,.77,0,1.49.18,2.15.59.33.21.44.45.21.82-.42.68-.83,1.37-1.22,2.06-.23.4-.45.37-.78.1-.86-.69-1.82-1.07-2.94-.87-.36.06-.72.14-1.14.49Z"/>
      </g>
      <g>
        <path class="cls-1" d="M87.08,69.83c1.01-3.46-.68-8.77-6.05-9.17-2.46-.18-4.93-.05-7.4-.06-.05,0-.1.07-.19.13.49.43.5.98.5,1.56-.01,3.59,0,7.19,0,10.78,0,.67.14,1.37-.58,1.87.05.04.1.08.15.11,2.3,0,4.61.1,6.9-.02,3.68-.2,5.69-1.82,6.68-5.2ZM82.98,71.75c-.7.57-1.54.82-2.42.87-1.17.06-2.35.01-3.52.03-.45,0-.47-.26-.46-.6,0-1.43,0-2.86,0-4.3h.04c0-1.39.01-2.77,0-4.16,0-.48.13-.67.64-.65,1.01.04,2.02,0,3.03.03,2.33.07,4.23,1.91,4.4,4.23.13,1.77-.25,3.37-1.7,4.55Z"/>
        <path class="cls-1" d="M111.04,59.92c-4.45.03-8.07,3.53-8.03,7.77.04,4.24,3.64,7.67,8.05,7.67,4.48,0,8.03-3.42,8.02-7.73,0-4.31-3.59-7.74-8.05-7.71ZM111.06,73.17c-3.01,0-5.51-2.5-5.5-5.47.02-3.01,2.49-5.46,5.51-5.46,3.07,0,5.51,2.45,5.5,5.51,0,3-2.48,5.44-5.51,5.43Z"/>
        <path class="cls-1" d="M22.44,60.04c-4.45,0-8.04,3.46-8.04,7.74,0,4.24,3.6,7.72,8,7.73,4.43.01,8.07-3.46,8.08-7.72,0-4.28-3.59-7.75-8.04-7.75ZM22.38,73.28c-3.02-.02-5.46-2.49-5.43-5.51.02-3.01,2.48-5.4,5.53-5.39,3.06.01,5.46,2.42,5.46,5.46,0,3.06-2.46,5.46-5.55,5.44Z"/>
        <path class="cls-1" d="M140.33,59.93c-4.44-.03-8.06,3.41-8.09,7.69-.02,4.23,3.57,7.73,7.96,7.75,4.49.02,8.07-3.37,8.1-7.66.02-4.32-3.49-7.75-7.97-7.78ZM140.33,73.17c-3.03.01-5.5-2.4-5.54-5.42-.04-3.01,2.46-5.51,5.52-5.51,3.01,0,5.5,2.47,5.5,5.46,0,3.01-2.46,5.47-5.48,5.48Z"/>
        <path class="cls-1" d="M132.66,74.35c-1.06-.16-1.6-.94-2.04-1.78-.69-1.31-1.37-2.61-2.64-3.55.39-.2.72-.36,1.05-.53,1.65-.83,2.43-2.11,2.19-4-.22-1.77-1.18-2.99-2.94-3.57-.77-.25-1.55-.38-2.35-.38-1.97,0-3.95,0-5.92,0-.22,0-.46-.08-.74.15.82.55.66,1.38.66,2.16,0,3.31,0,6.63,0,9.94,0,.74.13,1.51-.67,2.15h3.76c-.2-.46-.5-.82-.51-1.28,0-1.18,0-2.35,0-3.53,0-.23.05-.41.34-.43,1.48-.12,2.87-.01,3.84,1.35.37.52.74,1.03,1.04,1.59.36.7.84,1.3,1.43,1.82.76.66,1.64,1,2.66.89.41-.04.79-.16,1.04-.51.17-.24.18-.45-.17-.5ZM126.44,67.34c-1.13.02-2.25,0-3.38.01-.43,0-.58-.15-.57-.57.02-1.08.03-2.16,0-3.24-.01-.48.19-.61.63-.59.56.03,1.13,0,1.69,0,.54,0,1.08-.01,1.62,0,1.27.03,2.27.99,2.26,2.14-.01,1.25-.97,2.22-2.24,2.24Z"/>
        <path class="cls-1" d="M91.83,72.73c-.29,0-.42-.11-.42-.42,0-1.13,0-2.26,0-3.38,0-.28.07-.46.39-.44,2.06.14,4.15-.35,6.17.32v-3.13c-.4.21-.72.41-1.11.41-1.65,0-3.29,0-4.94,0-.37,0-.5-.15-.49-.5.02-.63.04-1.27,0-1.9-.04-.57.13-.78.74-.77,1.64.04,3.29.01,4.94.01.69,0,1.4-.12,2.07.52-.14-.85-.28-1.52-.35-2.19-.06-.58-.3-.77-.9-.76-3.01.03-6.02.01-9.03.02-.21,0-.46-.1-.71.2.71.56.58,1.36.58,2.13,0,3.22,0,6.44,0,9.66,0,.83.16,1.68-.59,2.46,1.38,0,2.6,0,3.82,0,2.23,0,4.47,0,6.7,0,.25,0,.59.12.65-.33.1-.76.21-1.52.33-2.34-.41.15-.74.36-1.06.37-2.26.04-4.51.04-6.77.05Z"/>
        <path class="cls-1" d="M38.69,66.39c-1.2-.43-2.37-.91-3.41-1.65-.45-.32-.82-.74-.65-1.37.16-.59.6-.85,1.17-.99.67-.16,1.31-.03,1.95.1,1.37.26,2.5,1.03,3.73,1.96,0-1.12,0-2.08,0-3.04,0-.21-.02-.41-.31-.27-.47.23-.87.04-1.27-.16-1.4-.72-2.89-.96-4.44-.81-1.76.16-3.15,1.4-3.49,3.1-.29,1.47.54,2.95,2.14,3.75.73.37,1.49.69,2.26.99.96.38,1.93.76,2.72,1.45.97.84,1.06,2.02.23,2.92-1.05,1.15-4.02,1.17-5.08.03-.44-.48-.54-1.04-.28-1.63.25-.58.78-.6,1.31-.59.22,0,.54.28.66-.11.09-.29-.12-.53-.33-.73-1.11-1.07-3.34-.58-3.95.87-.66,1.58-.11,3.45,1.31,4.43,2.5,1.73,6.58,1.27,8.62-.98,1.22-1.34,1.38-3.15.43-4.69-.79-1.28-1.96-2.06-3.34-2.57Z"/>
        <path class="cls-1" d="M57.84,73.89c.19-.73.4-1.45.6-2.17.09-.33.31-.42.63-.42,1.83,0,3.66,0,5.5,0,.28,0,.55.03.61.34.23,1.12,1.07,2.17.38,3.38h3.65c-.4-.54-.77-.99-.95-1.56-1.14-3.63-2.29-7.25-3.43-10.88-.21-.67-.63-1.34.18-2h-6.36c.59.57.47,1.13.27,1.7-1.49,4.24-2.46,8.67-4.28,12.76h3.56c-.3-.38-.47-.74-.36-1.16ZM59.49,68.56c.56-1.74,1.12-3.48,1.66-5.23.12-.38.36-.41.69-.42.37,0,.54.13.65.48.54,1.72,1.09,3.44,1.66,5.15.14.41-.03.48-.39.47-.63-.02-1.27,0-1.9,0-.68,0-1.36-.01-2.04,0-.37,0-.44-.13-.33-.46Z"/>
        <path class="cls-1" d="M13.8,71.3c-.21-.16-.42.1-.6.23-1.22.86-2.53,1.52-4.05,1.67-3.78.38-6.24-1.53-6.41-5.01-.19-3.86,2.67-6.41,6.49-5.8,1.41.23,2.59.93,3.84,1.92,0-1.14,0-2.1,0-3.05,0-.23-.06-.38-.33-.25-.51.23-.96.02-1.41-.19-1.59-.73-3.26-.93-4.96-.63-4.32.77-7.19,5.17-6.16,9.38,1.1,4.54,5.38,7.01,9.8,5.63,1.7-.53,3.09-1.49,3.76-3.23.08-.21.23-.5.03-.65Z"/>
        <path class="cls-1" d="M55.7,60.96c-.06-.37-.29-.42-.6-.42-1.08,0-2.16,0-3.24,0-2.73,0-5.45,0-8.18,0-.23,0-.58-.13-.65.23-.17.83-.29,1.67-.44,2.5.5-.31.96-.31,1.44-.3,1.08,0,2.16.04,3.24-.01.63-.03.8.18.79.8-.03,2.8,0,5.59-.02,8.39,0,.99.18,2.02-.59,2.89h3.83c-.78-.71-.64-1.53-.64-2.32,0-1.81,0-3.62,0-5.43,0-1.25,0-2.49,0-3.74,0-.3,0-.6.42-.57,1.66.1,3.34-.27,5.04.28-.14-.79-.29-1.55-.41-2.31Z"/>
      </g>
      <g>
        <path class="cls-3" d="M50.46,80.48c0-.21-.09-.27-.38-.31v-.1h1.8c.8,0,1.68.16,1.68,1.1,0,.59-.4.87-.93,1.03h0c.71.1,1.35.39,1.35,1.18,0,.71-.67,1.39-2.03,1.39h-1.87v-.1c.29-.04.38-.1.38-.31v-3.87ZM51.19,82.07h.41c.84,0,1.29-.3,1.29-.82,0-.59-.47-.82-1.02-.82h-.68v1.63ZM51.19,84.39h.51c.96,0,1.56-.33,1.56-.93,0-.67-.49-.98-1.32-.98h-.75v1.91Z"/>
        <path class="cls-3" d="M54.99,80.48c0-.21-.09-.27-.38-.31v-.1h3.57c0,.36.01.73.04,1.1h-.15c-.09-.59-.34-.68-.67-.68h-1.7v1.59h1.05c.27,0,.42-.02.47-.43h.15c-.02.21-.04.42-.04.63,0,.23.02.43.04.64h-.15c-.05-.41-.2-.43-.47-.43h-1.05v1.87h1.57c.62,0,.89-.13,1.02-.8h.14c-.04.41-.07.81-.07,1.22h-3.76v-.1c.29-.04.38-.1.38-.31v-3.87Z"/>
        <path class="cls-3" d="M58.73,84.71c.25,0,.32-.08.47-.49l1.32-3.62c.02-.07.04-.16.04-.24,0-.17-.07-.19-.24-.23v-.1c.19.02.38.04.56.04.13,0,.26-.02.39-.04.03.21.12.47.25.82l1.25,3.27c.19.5.23.55.5.6v.1c-.19,0-.38-.04-.57-.04-.29,0-.58.04-.87.04v-.1c.26-.02.34-.08.34-.22,0-.13-.04-.26-.2-.67l-.3-.82h-1.59l-.36,1.02c-.07.2-.12.39-.12.5,0,.11.07.18.39.19v.1c-.19,0-.39-.04-.59-.04-.22,0-.44.04-.67.04v-.1ZM61.54,82.63l-.66-1.84h-.01l-.66,1.84h1.33Z"/>
        <path class="cls-3" d="M67.5,84.31c-.39.39-1.01.57-1.64.57-.96,0-2.29-.71-2.29-2.45s1.57-2.49,2.61-2.49c.38,0,.79.07,1.13.23,0,.37.04.74.07,1.11h-.1c-.15-.67-.78-.88-1.3-.88-.99,0-1.73.7-1.73,1.79,0,1.14.81,2.19,1.85,2.19.51,0,1.01-.21,1.42-.48l-.03.41Z"/>
        <path class="cls-3" d="M68.19,84.71c.29-.04.38-.1.38-.31v-3.96c0-.21-.09-.27-.38-.31v-.1c.16,0,.46.04.74.04s.59-.04.74-.04v.1c-.29.04-.38.1-.38.31v1.63h2.34v-1.63c0-.21-.09-.27-.38-.31v-.1c.16,0,.46.04.74.04s.59-.04.74-.04v.1c-.29.04-.38.1-.38.31v3.96c0,.21.09.27.38.31v.1c-.16,0-.46-.04-.74-.04s-.59.04-.74.04v-.1c.29-.04.38-.1.38-.31v-1.87h-2.34v1.87c0,.21.09.27.38.31v.1c-.16,0-.46-.04-.74-.04s-.59.04-.74.04v-.1Z"/>
        <path class="cls-3" d="M75.4,84.71c.29-.04.38-.1.38-.31v-3.96c0-.21-.09-.27-.38-.31v-.1c.16,0,.46.04.74.04s.59-.04.74-.04v.1c-.29.04-.38.1-.38.31v1.63h2.34v-1.63c0-.21-.09-.27-.38-.31v-.1c.16,0,.46.04.74.04s.59-.04.74-.04v.1c-.29.04-.38.1-.38.31v3.96c0,.21.09.27.38.31v.1c-.16,0-.46-.04-.74-.04s-.59.04-.74.04v-.1c.29-.04.38-.1.38-.31v-1.87h-2.34v1.87c0,.21.09.27.38.31v.1c-.16,0-.46-.04-.74-.04s-.59.04-.74.04v-.1Z"/>
        <path class="cls-3" d="M83.09,79.95c1.65,0,2.3,1.33,2.3,2.41,0,1.27-.94,2.53-2.41,2.53s-2.32-1.11-2.32-2.45c0-1.45,1.28-2.48,2.43-2.48ZM83.16,84.38c.79,0,1.55-.58,1.55-1.76,0-1.3-.89-2.17-1.83-2.17-.54,0-1.53.43-1.53,1.79,0,1.05.67,2.13,1.82,2.13Z"/>
        <path class="cls-3" d="M87.39,80.48h-.68c-.42,0-.62.13-.76.8h-.15c.05-.41.1-.81.12-1.22h3.66c.02.41.07.81.12,1.22h-.15c-.13-.67-.34-.8-.76-.8h-.68v3.79c0,.25.09.39.47.43v.1c-.29,0-.61-.04-.83-.04s-.54.04-.83.04v-.1c.38-.04.47-.18.47-.43v-3.79Z"/>
        <path class="cls-3" d="M90.6,80.48c0-.21-.09-.27-.38-.31v-.1h3.57c0,.36.01.73.04,1.1h-.15c-.09-.59-.34-.68-.67-.68h-1.7v1.59h1.05c.27,0,.41-.02.47-.43h.15c-.02.21-.04.42-.04.63,0,.23.02.43.04.64h-.15c-.05-.41-.2-.43-.47-.43h-1.05v1.87h1.57c.62,0,.89-.13,1.02-.8h.14c-.04.41-.07.81-.07,1.22h-3.76v-.1c.29-.04.38-.1.38-.31v-3.87Z"/>
        <path class="cls-3" d="M95.12,80.44c0-.21-.09-.27-.38-.31v-.1c.16,0,.46.04.74.04s.59-.04.84-.04v.1c-.38.03-.47.14-.47.31v3.91h1.41c.68,0,.88-.19.95-.88h.13c-.04.43-.05.87-.06,1.3h-3.54v-.1c.29-.04.38-.1.38-.31v-3.91Z"/>
      </g>
    </g>
  </g>
</svg>