<?xml version="1.0" encoding="UTF-8"?>
<svg id="Capa_2" data-name="Capa 2" xmlns="http://www.w3.org/2000/svg" viewBox="0 0 36.16 35.2">
  <defs>
    <style>
      .cls-1 {
        fill: none;
        stroke: #003c51;
        stroke-miterlimit: 10;
        stroke-width: 2px;
      }
    </style>
  </defs>
  <g id="Capa_2-2" data-name="Capa 2">
    <g id="Capa_1-2" data-name="Capa 1-2">
      <g>
        <g>
          <path class="cls-1" d="M4.02,35.2v-10.06H1v-9.05c0-3.34,2.7-6.04,6.04-6.04s6.04,2.7,6.04,6.04v9.05h-3.02v10.06"/>
          <path class="cls-1" d="M10.05,4.02c0,1.67-1.35,3.02-3.02,3.02s-3.02-1.35-3.02-3.02,1.35-3.02,3.02-3.02,3.02,1.35,3.02,3.02Z"/>
        </g>
        <g>
          <polyline class="cls-1" points="23.13 16.09 20.11 28.16 23.13 28.16 23.13 35.2"/>
          <polyline class="cls-1" points="29.17 16.09 32.18 28.16 29.17 28.16 29.17 35.2"/>
          <path class="cls-1" d="M35.2,25.14l-3.02-11.06c-1.13-3.29-2.64-4.02-6.04-4.02s-4.9.74-6.04,4.02l-3.02,11.06"/>
          <path class="cls-1" d="M29.17,4.02c0,1.67-1.35,3.02-3.02,3.02s-3.02-1.35-3.02-3.02,1.35-3.02,3.02-3.02,3.02,1.35,3.02,3.02Z"/>
        </g>
      </g>
    </g>
  </g>
</svg>