<?xml version="1.0" encoding="UTF-8"?>
<svg id="Capa_2" data-name="Capa 2" xmlns="http://www.w3.org/2000/svg" viewBox="0 0 83.65 83.65">
  <defs>
    <style>
      .cls-1 {
        fill: #bf9732;
        fill-rule: evenodd;
        stroke-width: 0px;
      }
    </style>
  </defs>
  <g id="Capa_1-2" data-name="Capa 1">
    <g>
      <path class="cls-1" d="M41.82,0C18.74,0,0,18.74,0,41.82s18.74,41.82,41.82,41.82,41.82-18.74,41.82-41.82S64.91,0,41.82,0h0ZM41.82,2.88c21.49,0,38.94,17.45,38.94,38.94s-17.45,38.94-38.94,38.94S2.88,63.32,2.88,41.82,20.33,2.88,41.82,2.88h0Z"/>
      <path class="cls-1" d="M40.38,37.74v-19c0-.8.65-1.44,1.44-1.44s1.44.65,1.44,1.44v19c1.23.43,2.2,1.41,2.64,2.64h1.69c.8,0,1.44.65,1.44,1.44s-.65,1.44-1.44,1.44h-1.69c-.43,1.23-1.41,2.2-2.64,2.64v1.69c0,.8-.65,1.44-1.44,1.44s-1.44-.65-1.44-1.44v-1.69c-1.23-.43-2.2-1.41-2.64-2.64h-19c-.8,0-1.44-.65-1.44-1.44s.65-1.44,1.44-1.44h19c.43-1.23,1.41-2.2,2.64-2.64h0ZM41.82,40.38c.8,0,1.44.65,1.44,1.44s-.65,1.44-1.44,1.44-1.44-.65-1.44-1.44.65-1.44,1.44-1.44h0Z"/>
      <path class="cls-1" d="M41.82,5.77C21.92,5.77,5.77,21.92,5.77,41.82s16.16,36.06,36.06,36.06,36.06-16.16,36.06-36.06S61.72,5.77,41.82,5.77h0ZM43.27,8.68c4.99.21,9.7,1.53,13.88,3.72l-2.15,3.72c-.4.69-.16,1.57.53,1.97.69.4,1.57.16,1.97-.53l2.15-3.72c4.08,2.61,7.55,6.08,10.16,10.16l-3.72,2.15c-.69.4-.93,1.28-.53,1.97.4.69,1.28.93,1.97.53l3.72-2.15c2.18,4.18,3.5,8.89,3.72,13.88h-4.3c-.8,0-1.44.65-1.44,1.44s.65,1.44,1.44,1.44h4.3c-.21,4.99-1.53,9.7-3.72,13.88l-3.72-2.15c-.69-.4-1.57-.16-1.97.53-.4.69-.16,1.57.53,1.97l3.72,2.15c-2.61,4.08-6.08,7.55-10.16,10.16l-2.15-3.72c-.4-.69-1.28-.93-1.97-.53-.69.4-.93,1.28-.53,1.97l2.15,3.72c-4.18,2.18-8.89,3.5-13.88,3.72v-4.3c0-.8-.65-1.44-1.44-1.44s-1.44.65-1.44,1.44v4.3c-4.99-.21-9.7-1.53-13.88-3.72l2.15-3.72c.4-.69.16-1.57-.53-1.97-.69-.4-1.57-.16-1.97.53l-2.15,3.72c-4.08-2.61-7.55-6.08-10.16-10.16l3.72-2.15c.69-.4.93-1.28.53-1.97-.4-.69-1.28-.93-1.97-.53l-3.72,2.15c-2.18-4.18-3.5-8.89-3.72-13.88h4.3c.8,0,1.44-.65,1.44-1.44s-.65-1.44-1.44-1.44h-4.3c.21-4.99,1.53-9.7,3.72-13.88l3.72,2.15c.69.4,1.57.16,1.97-.53.4-.69.16-1.57-.53-1.97l-3.72-2.15c2.61-4.08,6.08-7.55,10.16-10.16l2.15,3.72c.4.69,1.28.93,1.97.53.69-.4.93-1.28.53-1.97l-2.15-3.72c4.18-2.18,8.89-3.5,13.88-3.72v4.3c0,.8.65,1.44,1.44,1.44s1.44-.65,1.44-1.44v-4.3h0Z"/>
    </g>
  </g>
</svg>