<svg width="32" height="24" viewBox="0 0 32 24" fill="none" xmlns="http://www.w3.org/2000/svg">
<g clip-path="url(#clip0_1660_1457)">
<mask id="mask0_1660_1457" style="mask-type:luminance" maskUnits="userSpaceOnUse" x="0" y="0" width="32" height="24">
<path d="M32 0H0V24H32V0Z" fill="white"/>
</mask>
<g mask="url(#mask0_1660_1457)">
<path d="M32 0H0V24H32V0Z" fill="white"/>
<path fill-rule="evenodd" clip-rule="evenodd" d="M0 0H32V24H0V0Z" fill="#F7FCFF"/>
<path fill-rule="evenodd" clip-rule="evenodd" d="M0 14.6667V16.6667H32V14.6667H0Z" fill="#E31D1C"/>
<path fill-rule="evenodd" clip-rule="evenodd" d="M0 18.3333V20.3333H32V18.3333H0Z" fill="#E31D1C"/>
<path fill-rule="evenodd" clip-rule="evenodd" d="M0 7.33331V9.33331H32V7.33331H0Z" fill="#E31D1C"/>
<path fill-rule="evenodd" clip-rule="evenodd" d="M0 22V24H32V22H0Z" fill="#E31D1C"/>
<path fill-rule="evenodd" clip-rule="evenodd" d="M0 11V13H32V11H0Z" fill="#E31D1C"/>
<path fill-rule="evenodd" clip-rule="evenodd" d="M0 0V2H32V0H0Z" fill="#E31D1C"/>
<path fill-rule="evenodd" clip-rule="evenodd" d="M0 3.66669V5.66669H32V3.66669H0Z" fill="#E31D1C"/>
<path d="M20 0H0V13H20V0Z" fill="#2E42A5"/>
<path fill-rule="evenodd" clip-rule="evenodd" d="M1.72209 2.93864L0.996209 3.44753L1.24127 2.54192L0.596558 1.96801H1.43864L1.72107 1.22894L2.05224 1.96801H2.7701L2.20606 2.54192L2.42443 3.44753L1.72209 2.93864ZM5.72209 2.93864L4.99621 3.44753L5.24127 2.54192L4.59656 1.96801H5.43864L5.72107 1.22894L6.05224 1.96801H6.7701L6.20606 2.54192L6.42443 3.44753L5.72209 2.93864ZM8.99621 3.44753L9.72209 2.93864L10.4245 3.44753L10.2061 2.54192L10.7701 1.96801H10.0523L9.72107 1.22894L9.43864 1.96801H8.59656L9.24127 2.54192L8.99621 3.44753ZM13.7221 2.93864L12.9962 3.44753L13.2413 2.54192L12.5966 1.96801H13.4387L13.7211 1.22894L14.0523 1.96801H14.7701L14.2061 2.54192L14.4245 3.44753L13.7221 2.93864ZM0.996209 7.44753L1.72209 6.93864L2.42443 7.44753L2.20606 6.54192L2.7701 5.96801H2.05224L1.72107 5.22894L1.43864 5.96801H0.596558L1.24127 6.54192L0.996209 7.44753ZM5.72209 6.93864L4.99621 7.44753L5.24127 6.54192L4.59656 5.96801H5.43864L5.72107 5.22894L6.05224 5.96801H6.7701L6.20606 6.54192L6.42443 7.44753L5.72209 6.93864ZM8.99621 7.44753L9.72209 6.93864L10.4245 7.44753L10.2061 6.54192L10.7701 5.96801H10.0523L9.72107 5.22894L9.43864 5.96801H8.59656L9.24127 6.54192L8.99621 7.44753ZM13.7221 6.93864L12.9962 7.44753L13.2413 6.54192L12.5966 5.96801H13.4387L13.7211 5.22894L14.0523 5.96801H14.7701L14.2061 6.54192L14.4245 7.44753L13.7221 6.93864ZM0.996209 11.4475L1.72209 10.9386L2.42443 11.4475L2.20606 10.5419L2.7701 9.96801H2.05224L1.72107 9.22894L1.43864 9.96801H0.596558L1.24127 10.5419L0.996209 11.4475ZM5.72209 10.9386L4.99621 11.4475L5.24127 10.5419L4.59656 9.96801H5.43864L5.72107 9.22894L6.05224 9.96801H6.7701L6.20606 10.5419L6.42443 11.4475L5.72209 10.9386ZM8.99621 11.4475L9.72209 10.9386L10.4245 11.4475L10.2061 10.5419L10.7701 9.96801H10.0523L9.72107 9.22894L9.43864 9.96801H8.59656L9.24127 10.5419L8.99621 11.4475ZM13.7221 10.9386L12.9962 11.4475L13.2413 10.5419L12.5966 9.96801H13.4387L13.7211 9.22894L14.0523 9.96801H14.7701L14.2061 10.5419L14.4245 11.4475L13.7221 10.9386ZM16.9962 3.44753L17.7221 2.93864L18.4245 3.44753L18.2061 2.54192L18.7701 1.96801H18.0523L17.7211 1.22894L17.4387 1.96801H16.5966L17.2413 2.54192L16.9962 3.44753ZM17.7221 6.93864L16.9962 7.44753L17.2413 6.54192L16.5966 5.96801H17.4387L17.7211 5.22894L18.0523 5.96801H18.7701L18.2061 6.54192L18.4245 7.44753L17.7221 6.93864ZM16.9962 11.4475L17.7221 10.9386L18.4245 11.4475L18.2061 10.5419L18.7701 9.96801H18.0523L17.7211 9.22894L17.4387 9.96801H16.5966L17.2413 10.5419L16.9962 11.4475ZM3.72209 4.93864L2.99621 5.44753L3.24127 4.54192L2.59656 3.96801H3.43864L3.72107 3.22894L4.05224 3.96801H4.7701L4.20606 4.54192L4.42443 5.44753L3.72209 4.93864ZM6.99621 5.44753L7.72209 4.93864L8.42443 5.44753L8.20606 4.54192L8.7701 3.96801H8.05224L7.72107 3.22894L7.43864 3.96801H6.59656L7.24127 4.54192L6.99621 5.44753ZM11.7221 4.93864L10.9962 5.44753L11.2413 4.54192L10.5966 3.96801H11.4387L11.7211 3.22894L12.0523 3.96801H12.7701L12.2061 4.54192L12.4245 5.44753L11.7221 4.93864ZM2.99621 9.44753L3.72209 8.93864L4.42443 9.44753L4.20606 8.54192L4.7701 7.96801H4.05224L3.72107 7.22894L3.43864 7.96801H2.59656L3.24127 8.54192L2.99621 9.44753ZM7.72209 8.93864L6.99621 9.44753L7.24127 8.54192L6.59656 7.96801H7.43864L7.72107 7.22894L8.05224 7.96801H8.7701L8.20606 8.54192L8.42443 9.44753L7.72209 8.93864ZM10.9962 9.44753L11.7221 8.93864L12.4245 9.44753L12.2061 8.54192L12.7701 7.96801H12.0523L11.7211 7.22894L11.4387 7.96801H10.5966L11.2413 8.54192L10.9962 9.44753ZM15.7221 4.93864L14.9962 5.44753L15.2413 4.54192L14.5966 3.96801H15.4387L15.7211 3.22894L16.0523 3.96801H16.7701L16.2061 4.54192L16.4245 5.44753L15.7221 4.93864ZM14.9962 9.44753L15.7221 8.93864L16.4245 9.44753L16.2061 8.54192L16.7701 7.96801H16.0523L15.7211 7.22894L15.4387 7.96801H14.5966L15.2413 8.54192L14.9962 9.44753Z" fill="#F7FCFF"/>
</g>
</g>
<defs>
<clipPath id="clip0_1660_1457">
<rect width="32" height="24" fill="white"/>
</clipPath>
</defs>
</svg>
