<?xml version="1.0" encoding="UTF-8"?>
<svg id="Capa_2" data-name="Capa 2" xmlns="http://www.w3.org/2000/svg" viewBox="0 0 90.71 61.82">
  <defs>
    <style>
      .cls-1 {
        fill: #bf9732;
        stroke-width: 0px;
      }
    </style>
  </defs>
  <g id="Capa_1-2" data-name="Capa 1">
    <g>
      <path class="cls-1" d="M52.57,54.61l-7.21,7.21-7.21-7.21c3.98-3.98,10.44-3.98,14.43,0Z"/>
      <path class="cls-1" d="M88.18,21.29C76.76,9.87,61.55,3.59,45.36,3.58,29.16,3.58,13.95,9.87,2.54,21.29l-2.54-2.54C12.1,6.66,28.21,0,45.36,0c0,0,0,0,0,0,17.15,0,33.26,6.66,45.36,18.76l-2.54,2.54Z"/>
      <path class="cls-1" d="M75.21,34.26c-16.46-16.46-43.25-16.46-59.71,0l-2.54-2.54c17.86-17.86,46.92-17.86,64.78,0l-2.54,2.54Z"/>
      <path class="cls-1" d="M62.24,47.23c-4.5-4.5-10.5-6.98-16.89-6.98s-12.39,2.48-16.89,6.98l-2.54-2.54c5.18-5.18,12.08-8.03,19.42-8.03s14.24,2.85,19.42,8.03l-2.54,2.54Z"/>
    </g>
  </g>
</svg>